<svg width="32" height="33" viewBox="0 0 32 33" fill="none" xmlns="http://www.w3.org/2000/svg">
<g id="mdi:bell-outline">
<path id="Vector" d="M13.3333 28.4993H18.6667C18.6667 29.966 17.4667 31.166 16 31.166C14.5333 31.166 13.3333 29.966 13.3333 28.4993ZM28 25.8327V27.166H4V25.8327L6.66667 23.166V15.166C6.66667 11.0327 9.33333 7.43268 13.3333 6.23268V5.83268C13.3333 4.36602 14.5333 3.16602 16 3.16602C17.4667 3.16602 18.6667 4.36602 18.6667 5.83268V6.23268C22.6667 7.43268 25.3333 11.0327 25.3333 15.166V23.166L28 25.8327ZM22.6667 15.166C22.6667 11.4327 19.7333 8.49935 16 8.49935C12.2667 8.49935 9.33333 11.4327 9.33333 15.166V24.4993H22.6667V15.166Z" fill="#1E1E1E"/>
</g>
</svg>
