<svg width="44" height="38" viewBox="0 0 44 38" fill="none" xmlns="http://www.w3.org/2000/svg">
<path d="M9.16602 12.9688L15.0193 1.54099L16.4324 1L28.232 1.07898L28.9773 1.37454L34.9012 12.5476L24.6591 16.1878L17.5531 1.83404L15.2293 1.81126L9.16602 12.9688Z" fill="#F0CDCD" stroke="#F0CDCD" stroke-width="1.99999" stroke-linecap="round" stroke-linejoin="round"/>
<path d="M35.713 14.3887L42.9998 25.1829L42.7759 26.6413L36.8056 36.5214L36.1692 37.0001L23.2393 36.3933L25.1127 25.963L41.4714 27.1661L42.6537 25.2239L35.5705 14.7633L35.713 14.3887Z" fill="#90A9AE" stroke="#90A9AE" stroke-width="1.99999" stroke-linecap="round" stroke-linejoin="round"/>
<path d="M21.6323 35.3256L8.12751 36.3388L6.93832 35.4214L1.10898 25.4623L1 24.688L8.00642 14.1216L16.375 20.9117L7.12233 34.0623L8.26389 36.0273L21.6323 35.3256Z" fill="#CFB358" stroke="#CFB358" stroke-width="1.99999" stroke-linecap="round" stroke-linejoin="round"/>
<path d="M9.16602 12.9687L24.209 8.99072L9.16602 12.9687Z" fill="#F0CDCD"/>
<path d="M9.16602 12.9687L24.209 8.99072" stroke="#F0CDCD" stroke-width="1.99999" stroke-linecap="round" stroke-linejoin="round"/>
<path d="M31.7329 29.4122L35.6421 14.5757L31.7329 29.4122Z" fill="#90A9AE"/>
<path d="M31.7329 29.4122L35.6421 14.5757" stroke="#90A9AE" stroke-width="1.99999" stroke-linecap="round" stroke-linejoin="round"/>
<path d="M21.632 35.3252L10.5615 24.668L21.632 35.3252Z" fill="#CFB358"/>
<path d="M21.632 35.3252L10.5615 24.668" stroke="#CFB358" stroke-width="1.99999" stroke-linecap="round" stroke-linejoin="round"/>
</svg>
