<svg xmlns="http://www.w3.org/2000/svg" width="330" height="20" viewBox="0 0 330 20" fill="none">
  <path d="M330 14.8855C328.731 16.0607 324.035 17.2358 322.639 14.2979C322.385 14.4938 322.766 14.8855 322.893 15.0814C321.751 14.6896 320.101 14.8855 318.324 15.0814C316.548 15.2772 314.644 15.4731 312.994 15.0814C311.725 12.1434 308.045 16.2565 306.902 12.3393L307.537 13.1227C308.679 12.1434 306.014 10.3807 305.633 9.40136C304.618 11.7517 305.506 11.36 304.364 13.3186L305.76 12.5352L305.379 14.4938C301.445 9.00964 297.511 16.2565 294.973 12.3393C295.1 12.5352 295.1 12.9269 295.227 13.1227C293.45 14.102 292.308 11.5558 291.039 10.7724C290.912 11.7517 291.8 12.5352 292.435 13.3186C289.389 13.9062 284.312 10.9683 281.013 12.5352C279.87 11.1641 281.52 10.7724 280.251 9.59723C279.236 9.98895 278.474 10.9683 279.744 11.7517C276.825 14.102 270.098 9.79309 265.657 12.1434C263.372 10.5765 264.768 9.98895 261.215 9.00964C262.103 9.98895 260.326 12.3393 262.484 12.3393L262.738 13.3186C259.184 13.5145 254.362 13.9062 252.458 10.9683C252.331 13.1227 251.823 11.36 250.427 12.5352C249.92 12.3393 250.427 12.1434 250.681 12.1434C249.412 10.3807 248.651 12.3393 247.762 11.9476L248.143 12.3393L245.605 10.9683C245.224 11.36 244.589 11.7517 244.463 12.3393V10.7724C243.067 10.7724 243.828 12.731 242.051 12.3393L242.432 11.1641C241.29 11.9476 239.64 10.3807 239.386 12.1434C239.386 12.5352 239.513 12.3393 239.894 12.3393C238.244 14.6896 235.452 11.7517 233.421 12.9269L233.929 10.3807C231.898 9.59723 232.66 10.9683 232.787 11.7517C231.391 11.7517 231.137 12.5352 229.36 12.9269C228.472 12.3393 228.853 11.9476 228.599 11.36L226.695 12.1434L227.964 13.5145C225.045 9.98895 220.857 14.2979 218.827 11.1641C217.811 11.9476 219.842 12.5352 219.207 13.1227C215.908 14.8855 211.593 11.1641 208.801 13.1227C204.232 15.0814 198.902 13.9062 193.825 15.2772L193.952 14.6896L190.272 15.4731C189.257 14.102 186.845 14.8855 185.195 13.3186C185.322 13.9062 185.069 14.6896 185.449 15.0814C183.926 14.8855 182.15 14.2979 181.261 15.2772L181.769 15.8648C178.342 16.4524 173.647 16.8441 171.743 15.6689C170.601 15.6689 170.601 16.8441 170.347 17.6276C168.316 17.8234 167.047 17.2358 165.398 16.2565C165.017 16.6483 164.509 16.8441 164.128 17.4317L163.367 15.8648C162.605 16.0607 163.24 17.2358 162.606 17.6276C159.433 15.8648 155.879 17.8234 153.722 17.8234L153.976 17.04C153.087 16.4524 151.31 17.6276 152.453 18.411C148.138 19.5862 145.98 16.0607 140.269 16.8441C139.508 19.782 135.066 16.2565 134.178 19.5862C131.766 18.8027 130.116 20.1738 128.467 18.411C128.467 18.8027 128.213 18.8027 128.594 18.9986C127.578 20.1738 124.406 19.3903 121.867 18.6069L121.74 19.5862C120.598 17.2358 116.41 17.8234 115.522 15.6689C115.268 16.0607 116.029 16.6483 116.41 17.04C115.141 19.1945 114.126 16.0607 112.476 16.6483C112.603 17.2358 112.095 17.8234 112.476 18.2151C106.892 20.5655 99.0235 16.8441 91.7896 18.411C89.7591 18.411 92.5511 16.0607 89.886 16.2565C89.1245 17.4317 91.1551 18.411 89.5053 18.9986C88.3631 17.6276 87.8554 18.0193 86.2056 18.0193C86.4594 18.8027 86.2056 19.1945 87.3478 19.782C86.4594 20.7613 83.4136 18.0193 81.6368 19.782C81.7637 19.1945 81.383 18.8027 81.0023 18.411C78.3371 16.4524 74.7837 20.1738 74.5298 19.1945C74.5298 19.1945 73.6415 18.8027 74.4029 18.6069C73.3877 18.6069 71.9916 18.9986 72.2455 19.9779C71.7378 19.3903 71.2302 18.411 70.4687 18.411L70.8495 19.5862C70.3418 19.3903 69.8342 18.6069 69.4534 18.411L70.2149 17.6276C69.0727 18.6069 66.9152 16.0607 66.9152 18.411H67.296L65.1385 19.3903C64.2501 18.411 63.4887 17.4317 61.9657 17.6276C61.3312 20.1738 58.2853 18.0193 56.5086 18.2151L56.6355 18.9986C55.2395 17.8234 51.5591 18.2151 52.1937 17.8234C50.7976 17.8234 48.894 18.2151 49.6555 18.9986C48.6402 18.8027 46.2289 18.8027 45.5943 17.2358L43.3099 19.1945C42.0408 16.0607 38.7412 20.1738 38.7412 16.8441C37.4721 17.2358 37.7259 18.0193 36.8375 18.6069C35.0608 16.8441 33.284 17.04 31.5073 17.2358V17.6276C29.7306 17.8234 27.5731 16.0607 25.0349 15.6689L24.4003 18.0193C23.1312 17.6276 22.7505 15.6689 21.4814 16.0607C21.2276 16.4524 21.4814 16.6483 21.7352 16.6483C20.4661 16.0607 18.8163 16.4524 17.801 17.04C15.8974 15.0814 14.3744 15.6689 12.8515 13.5145C11.2017 15.4731 15.009 14.6896 13.613 16.6483C10.8209 17.4317 8.02893 15.8648 5.10999 14.4938C4.85617 14.8855 5.10999 15.2772 5.2369 15.8648C5.2369 15.8648 3.71398 14.102 2.44488 12.3393C1.17578 10.3807 0.033586 8.22619 0.668137 7.05102C0.033586 5.28827 -0.854785 4.30896 1.81033 3.13379C2.57179 4.1131 4.98308 5.67999 5.49072 3.91724L5.61763 5.67999C8.9173 6.85516 6.12527 2.15448 10.1864 2.5462L9.29803 3.13379C10.0595 3.32965 10.694 4.50482 11.5824 4.1131C11.8362 3.72137 11.3286 3.32965 10.9479 2.93793C12.0901 3.91724 13.1053 4.70068 14.2475 5.67999C14.3744 4.70068 14.3744 4.1131 13.7399 3.32965C16.9126 3.72138 12.9784 6.46344 16.7857 6.07172C17.5472 5.28827 16.5319 4.89655 16.1512 4.30896C17.9279 2.93793 19.0701 4.50482 20.9738 5.48413C21.1007 3.91724 19.8316 4.1131 21.3545 3.13379C20.9738 3.91724 20.7199 5.28827 21.989 5.48413C21.4814 3.91724 22.8774 4.70068 24.0196 4.50482C23.7658 5.09241 23.8927 5.67999 24.2734 6.07172C24.7811 6.26758 25.2887 5.87585 26.0502 5.87585L24.6542 7.24689C26.5578 8.81378 27.7 6.6593 29.2229 6.07172C29.096 5.87585 28.8422 5.48413 28.5884 5.48413C30.1113 4.89654 31.7611 3.72138 33.7917 5.28827L33.411 5.09241C37.0914 6.85516 32.1419 7.63861 36.4568 9.40136C37.8528 9.2055 35.9492 4.30896 39.1219 6.26758C37.4721 7.44275 41.1525 9.59723 43.0561 10.1848L41.1525 7.05102C41.9139 7.05102 43.183 8.03033 43.6907 7.63861L43.5638 8.2262C43.3099 10.7724 45.9751 8.03033 47.3711 9.59723C45.7212 6.07172 45.5943 6.6593 45.3405 3.32965C46.6096 5.28827 48.1325 7.05102 50.5438 6.85516L48.6402 4.1131C51.8129 3.72137 55.6202 7.83447 58.2853 9.98895C57.6508 8.03033 58.6661 7.24689 57.5239 5.67999L60.5697 6.26758L59.6814 4.1131C60.9505 6.46344 62.3465 4.89654 62.0927 7.83447C61.7119 7.44275 61.8388 7.05102 61.2043 7.24689C61.3312 8.03033 61.8388 9.98895 63.3618 9.79309C64.5039 9.2055 62.7272 8.61792 63.1079 7.83447C64.1232 9.00964 64.2501 7.24689 65.2654 8.03033L64.2501 9.2055C65.0116 10.9683 66.0269 9.40137 67.0421 10.1848C65.773 9.40137 66.1538 8.42206 66.6614 7.44275L66.5345 7.63861C67.5498 7.83447 68.5651 9.00964 69.0727 8.03033L68.4382 5.67999L69.5803 7.44275C69.9611 7.24689 70.3418 6.26758 69.5803 5.87585C73.1338 4.50482 69.4534 10.7724 74.1491 8.81378C74.1491 7.83447 73.6415 7.24689 72.3724 7.83447C72.1186 6.46344 72.4993 5.67999 73.7684 5.09241V4.89654C76.1797 4.89654 79.3524 4.89654 80.8754 6.46344C81.383 5.87585 80.8754 5.28827 80.3677 4.70068C83.0328 3.91724 83.9212 6.07172 86.7132 4.50482L85.4441 5.28827C87.2209 6.46344 90.5205 6.85516 92.1704 5.09241L91.6627 4.50482C93.3125 5.87585 96.1046 3.32965 96.7391 4.50482C95.9777 5.28827 96.7391 5.67999 95.7238 6.46344L100.039 7.83447L100.293 5.48413L102.577 6.26758C102.069 7.24689 105.623 5.48413 105.75 7.63861C107.019 6.85516 105.242 5.87585 104.734 4.89654C106.004 5.48413 106.13 4.50482 107.4 5.87585L108.669 3.72137L111.968 5.09241C111.841 4.89654 111.968 4.70068 111.841 4.50482C113.364 6.26758 115.776 3.32965 117.679 6.26758C117.552 6.07172 117.552 6.07171 117.552 5.87585C118.695 7.44275 121.233 6.26758 122.248 5.87585C124.025 6.26758 123.01 7.83447 123.01 8.61792C127.959 7.83447 126.436 8.03033 130.624 10.3807C133.162 7.63861 127.578 6.26758 130.751 4.50482C131.259 5.67999 133.416 6.6593 135.954 7.05102C138.239 6.07172 142.046 5.28827 144.204 3.32965L143.95 5.09241L147.249 5.87585L145.346 3.52551C145.853 4.1131 147.503 5.09241 148.645 5.87585C152.072 7.24688 150.422 2.15448 153.087 4.50482C153.214 4.30896 153.214 4.1131 153.341 3.91724C154.229 5.09241 156.387 4.50482 158.925 4.89654L158.037 2.74206L156.387 3.32965C157.275 1.17517 159.052 3.52551 160.702 3.32965C162.352 3.91724 161.59 5.87585 162.479 6.46344C163.113 6.26758 164.002 6.85516 164.509 6.26758C165.905 5.48413 164.636 3.72137 164.128 2.74206C165.398 4.89654 165.905 4.50482 168.697 5.28827C168.824 4.30896 168.57 3.72137 168.19 3.52551C168.824 3.72137 169.332 4.1131 169.712 5.09241L170.601 3.72137C173.774 1.76276 173.9 7.63861 177.708 6.6593C176.693 5.48413 181.007 6.6593 182.15 5.28827C180.754 5.09241 182.657 2.15448 181.896 0.783449C184.942 -0.19586 183.165 3.32965 185.703 3.52551L184.561 0.979309C186.972 1.95862 185.195 2.35034 187.607 3.13379C186.972 2.35034 188.622 2.35034 187.226 1.56689C190.399 1.17517 189.637 1.37103 192.429 0.979309L192.683 3.52551C193.572 3.72137 193.952 2.5462 194.206 2.15448C193.825 2.15448 193.191 2.35034 193.318 1.95862C194.333 -0.391723 195.094 3.13379 196.364 0.979309C196.11 1.76276 195.729 2.93793 196.871 3.13379C196.491 1.56689 198.648 1.5669 198.648 0.783449C197.887 1.95862 201.186 1.17517 201.313 2.74206C202.582 1.37103 200.805 1.56689 200.805 0.587585C201.948 2.5462 205.501 0.587587 206.643 1.76276C206.643 1.5669 206.77 1.5669 206.77 1.37103C208.293 2.5462 210.578 2.74207 213.496 4.30896L212.481 2.93793C215.273 2.15448 214.258 5.87585 216.669 5.87585C216.162 3.72137 220.603 5.87585 219.461 3.52551C220.857 4.70068 222.38 5.09241 223.395 6.85516C224.665 5.67999 220.73 4.1131 222.634 3.32965L224.665 4.30896L225.045 3.13379C225.172 3.91724 226.949 3.91724 226.822 4.70068C227.076 3.32965 227.964 2.35034 227.837 1.17517C229.106 1.56689 230.883 0.195864 232.025 1.37103L232.152 0.783449C233.421 3.32965 236.086 1.17517 236.721 3.72137L237.482 2.35034C239.386 2.5462 239.132 5.28827 240.021 5.87585C240.782 5.87585 241.797 6.26758 242.559 5.87585C240.021 4.30896 243.828 3.72137 244.336 2.74206C245.351 2.74206 248.27 2.74207 249.031 4.1131C247.762 2.74207 248.524 1.76276 246.366 1.56689C247.508 -0.979309 249.666 1.95862 252.077 1.76276V0.587585C255.504 1.37103 255.631 3.52551 257.154 5.48413C257.534 3.91724 257.28 3.52551 256.265 2.15448C258.55 1.17517 262.23 2.35034 264.768 2.15448C265.53 1.17517 265.022 0.391723 264.134 -5.12746e-08C266.799 1.17517 270.098 -0.19586 271.748 2.35034C271.114 1.37103 272.89 1.76276 273.779 1.17517C273.779 1.76276 273.906 2.35034 274.033 2.35034C275.682 3.52551 279.236 4.50482 281.14 3.72137L280.505 2.93793C282.662 2.74206 284.312 3.91724 285.962 4.70068C287.612 5.48413 289.262 6.26758 291.673 5.48413C292.562 4.89654 290.785 3.32965 292.561 3.52551C293.45 4.50482 293.069 6.46344 295.354 6.07172L295.227 4.30896L296.75 6.07172C295.861 7.44275 293.45 6.85516 295.1 8.42206C297.13 6.85516 296.75 10.1848 299.288 8.42206C298.78 8.22619 298.019 6.85516 297.638 6.07172C300.176 5.28827 301.953 5.87585 303.73 6.26758C305.506 6.85516 307.283 7.44275 309.948 6.6593C312.486 8.22619 315.786 9.00964 317.436 10.3807C317.436 8.61792 317.436 7.05102 316.421 5.67999C318.705 5.67999 319.466 9.79309 321.116 7.44275C322.005 9.98895 327.081 9.79309 327.462 13.3186L330 14.8855Z" fill="#F3BC34"/>
</svg>